solid Default
  facet normal 0.000000e+00 0.000000e+00 -9.999999e-01
    outer loop
      vertex 1.222686e+01 3.909202e+01 0.000000e+00
      vertex -1.222686e+01 -3.909202e+01 0.000000e+00
      vertex -1.222686e+01 3.909202e+01 0.000000e+00
    endloop
  endfacet
  facet normal 0.000000e+00 0.000000e+00 -9.999999e-01
    outer loop
      vertex -1.222686e+01 -3.909202e+01 0.000000e+00
      vertex 1.222686e+01 3.909202e+01 0.000000e+00
      vertex 1.222686e+01 -3.909202e+01 0.000000e+00
    endloop
  endfacet
  facet normal -9.999999e-01 0.000000e+00 0.000000e+00
    outer loop
      vertex -1.222686e+01 3.909202e+01 2.246212e+01
      vertex -1.222686e+01 -3.909202e+01 0.000000e+00
      vertex -1.222686e+01 -3.909202e+01 2.246212e+01
    endloop
  endfacet
  facet normal -9.999999e-01 0.000000e+00 0.000000e+00
    outer loop
      vertex -1.222686e+01 -3.909202e+01 0.000000e+00
      vertex -1.222686e+01 3.909202e+01 2.246212e+01
      vertex -1.222686e+01 3.909202e+01 0.000000e+00
    endloop
  endfacet
  facet normal 0.000000e+00 -9.999999e-01 0.000000e+00
    outer loop
      vertex 1.222686e+01 -3.909202e+01 2.246212e+01
      vertex -1.222686e+01 -3.909202e+01 0.000000e+00
      vertex 1.222686e+01 -3.909202e+01 0.000000e+00
    endloop
  endfacet
  facet normal 0.000000e+00 -9.999999e-01 0.000000e+00
    outer loop
      vertex -1.222686e+01 -3.909202e+01 0.000000e+00
      vertex 1.222686e+01 -3.909202e+01 2.246212e+01
      vertex -1.222686e+01 -3.909202e+01 2.246212e+01
    endloop
  endfacet
  facet normal 0.000000e+00 9.999999e-01 0.000000e+00
    outer loop
      vertex -1.222686e+01 3.909202e+01 2.246212e+01
      vertex 1.222686e+01 3.909202e+01 0.000000e+00
      vertex -1.222686e+01 3.909202e+01 0.000000e+00
    endloop
  endfacet
  facet normal 0.000000e+00 9.999999e-01 0.000000e+00
    outer loop
      vertex 1.222686e+01 3.909202e+01 0.000000e+00
      vertex -1.222686e+01 3.909202e+01 2.246212e+01
      vertex 1.222686e+01 3.909202e+01 2.246212e+01
    endloop
  endfacet
  facet normal 9.999999e-01 0.000000e+00 0.000000e+00
    outer loop
      vertex 1.222686e+01 3.909202e+01 0.000000e+00
      vertex 1.222686e+01 -3.909202e+01 2.246212e+01
      vertex 1.222686e+01 -3.909202e+01 0.000000e+00
    endloop
  endfacet
  facet normal 9.999999e-01 0.000000e+00 0.000000e+00
    outer loop
      vertex 1.222686e+01 -3.909202e+01 2.246212e+01
      vertex 1.222686e+01 3.909202e+01 0.000000e+00
      vertex 1.222686e+01 3.909202e+01 2.246212e+01
    endloop
  endfacet
  facet normal 0.000000e+00 0.000000e+00 9.999999e-01
    outer loop
      vertex 1.222686e+01 -3.909202e+01 2.246212e+01
      vertex -1.222686e+01 3.909202e+01 2.246212e+01
      vertex -1.222686e+01 -3.909202e+01 2.246212e+01
    endloop
  endfacet
  facet normal 0.000000e+00 0.000000e+00 9.999999e-01
    outer loop
      vertex -1.222686e+01 3.909202e+01 2.246212e+01
      vertex 1.222686e+01 -3.909202e+01 2.246212e+01
      vertex 1.222686e+01 3.909202e+01 2.246212e+01
    endloop
  endfacet
endsolid Default
